<?xml version="1.0" encoding="UTF-8"?>
<!DOCTYPE svg PUBLIC "-//W3C//DTD SVG 1.1//EN" "http://www.w3.org/Graphics/SVG/1.1/DTD/svg11.dtd">
<svg xmlns="http://www.w3.org/2000/svg" version="1.1" width="64px" height="64px" style="shape-rendering:geometricPrecision; text-rendering:geometricPrecision; image-rendering:optimizeQuality; fill-rule:evenodd; clip-rule:evenodd" xmlns:xlink="http://www.w3.org/1999/xlink">
<g><path style="opacity:0.908" fill="#f0edf0" d="M 31.5,-0.5 C 32.1667,-0.5 32.8333,-0.5 33.5,-0.5C 36.5775,0.230409 39.5775,1.39708 42.5,3C 25.9101,5.56759 18.4101,15.0676 20,31.5C 21.7379,35.2413 24.2379,38.408 27.5,41C 16.6181,39.9424 10.9514,33.7757 10.5,22.5C 11.6868,9.32036 18.6868,1.6537 31.5,-0.5 Z"/></g>
<g><path style="opacity:0.918" fill="#f1eff3" d="M 30.5,19.5 C 28.629,19.8588 27.129,20.8588 26,22.5C 24.6667,25.1667 23.3333,27.8333 22,30.5C 19.0708,16.5579 24.9042,8.89119 39.5,7.5C 58.5723,10.3215 65.5723,20.9881 60.5,39.5C 58.7755,35.1712 56.9421,30.8379 55,26.5C 48.7033,16.894 40.5367,14.5606 30.5,19.5 Z"/></g>
<g><path style="opacity:0.917" fill="#f0eef1" d="M 37.5,42.5 C 35.5,43.8333 33.8333,45.5 32.5,47.5C 31.5084,47.3284 30.8417,47.6618 30.5,48.5C 9.58492,50.7514 0.0849212,41.4181 2,20.5C 3.05751,16.7166 4.89084,13.3832 7.5,10.5C 8.5,9.16667 9.5,9.16667 10.5,10.5C 7.31301,19.2607 8.14635,27.5941 13,35.5C 19.8952,43.1918 27.8952,44.5251 37,39.5C 37.4828,40.448 37.6495,41.448 37.5,42.5 Z"/></g>
<g><path style="opacity:0.915" fill="#edeef1" d="M 39.5,63.5 C 36.5,63.5 33.5,63.5 30.5,63.5C 33.7731,60.7527 37.2731,58.086 41,55.5C 48.2764,46.5156 48.943,37.1822 43,27.5C 39.3091,23.739 34.8091,21.739 29.5,21.5C 29.8627,20.8165 30.1961,20.1499 30.5,19.5C 42.7507,17.0415 50.9174,21.7082 55,33.5C 57.9547,47.9294 52.7881,57.9294 39.5,63.5 Z"/></g>
<g><path style="opacity:0.917" fill="#edeef1" d="M 30.5,48.5 C 31.4916,48.6716 32.1583,48.3382 32.5,47.5C 35.1667,46.8333 36.8333,45.1667 37.5,42.5C 38.5585,41.3998 39.3918,40.0664 40,38.5C 40.3333,35.1667 40.6667,31.8333 41,28.5C 46.9396,36.4315 46.9396,44.4315 41,52.5C 34.8549,59.0882 27.3549,61.2549 18.5,59C 10.2507,56.607 5.58402,51.4403 4.5,43.5C 12.2208,51.2744 20.8874,52.9411 30.5,48.5 Z"/></g>
</svg>
